<svg width="26" height="26" viewBox="0 0 26 26" xmlns="http://www.w3.org/2000/svg"><title>dislike</title><g transform="rotate(180 13 13)" fill="none" fill-rule="evenodd"><path d="M0 0h26v26H0z"/><rect fill="#666" x="4" y="11" width="2.125" height="10" rx="7"/><path d="M8.683 12.095c-.24.5-.433 1.352-.433 1.906v4.5c0 .552.447 1 1.005 1h7.095c1.1 0 2.31-.846 2.693-1.865l1.436-3.828c.58-1.55-.296-2.807-1.952-2.807h-3.43c-.555 0-.93-.447-.843-.987l.74-4.526c.09-.545-.21-1.248-.654-1.563l-.493-.348c-.45-.318-1.01-.172-1.248.33l-3.917 8.19z" stroke="#666" stroke-width="2"/></g></svg>