<svg width="29" height="29" viewBox="0 0 26 26" xmlns="http://www.w3.org/2000/svg"><title>like-on</title><g fill="none" fill-rule="evenodd"><path d="M0 0h26v26H0z"/><rect fill="#7F6500" x="5" y="12" width="2" height="10" rx="7"/><path d="M9.407 13.095C9.182 13.595 9 14.447 9 15v4.5c0 .552.445 1 1 1h6.508c1.1 0 2.29-.846 2.658-1.886L20.5 14.83c.553-1.563-.35-2.83-2.01-2.83h-2.987c-.554 0-.934-.447-.85-.987l.695-4.526c.084-.545-.206-1.255-.65-1.588l-.396-.3c-.443-.33-.984-.196-1.21.305l-3.685 8.19z" stroke="#7F6500" stroke-width="2" fill="#FC0"/></g></svg>